<?xml version="1.0" encoding="utf-8"?>
<!-- Generator: Adobe Illustrator 25.0.0, SVG Export Plug-In . SVG Version: 6.00 Build 0)  -->
<svg version="1.1" id="Layer_1" xmlns="http://www.w3.org/2000/svg" xmlns:xlink="http://www.w3.org/1999/xlink" x="0px" y="0px"
	 viewBox="0 0 329.97 200.82" style="enable-background:new 0 0 329.97 200.82;" xml:space="preserve">
<style type="text/css">
	.st0{fill:#F16667;}
	.st1{fill:#664544;}
	.st2{fill:#FFFFFF;}
</style>
<g>
	<path class="st0" d="M59.62,76.32v57.56h-9.99v-9.12c-2.32,3.19-5.25,5.61-8.8,7.28c-3.55,1.67-7.46,2.5-11.73,2.5
		c-5.58,0-10.57-1.23-14.99-3.69c-4.42-2.46-7.87-5.92-10.37-10.37C1.25,116.01,0,110.89,0,105.1c0-5.79,1.25-10.9,3.75-15.31
		c2.5-4.42,5.95-7.86,10.37-10.32c4.42-2.46,9.41-3.69,14.99-3.69c4.13,0,7.93,0.78,11.4,2.34c3.48,1.56,6.37,3.86,8.69,6.9v-8.69
		H59.62z M39.86,122.86c2.97-1.7,5.28-4.09,6.95-7.17c1.66-3.08,2.5-6.61,2.5-10.59c0-3.98-0.83-7.51-2.5-10.59
		c-1.67-3.08-3.98-5.45-6.95-7.11c-2.97-1.66-6.26-2.5-9.88-2.5c-3.69,0-7.01,0.83-9.94,2.5c-2.93,1.67-5.25,4.04-6.95,7.11
		c-1.7,3.08-2.55,6.61-2.55,10.59c0,3.98,0.85,7.51,2.55,10.59c1.7,3.08,4.02,5.47,6.95,7.17c2.93,1.7,6.24,2.55,9.94,2.55
		C33.59,125.41,36.89,124.56,39.86,122.86z"/>
	<path class="st0" d="M75.24,76.32h10.43v57.56H75.24V76.32z"/>
	<path class="st0" d="M190.61,82.07c4.24,4.2,6.35,10.43,6.35,18.68v33.12h-10.43v-31.93c0-5.57-1.29-9.77-3.86-12.6
		c-2.57-2.82-6.24-4.24-11.02-4.24c-5.29,0-9.49,1.65-12.6,4.94c-3.11,3.3-4.67,8.02-4.67,14.17v29.65h-10.43v-31.93
		c0-5.57-1.29-9.77-3.86-12.6c-2.57-2.82-6.24-4.24-11.02-4.24c-5.29,0-9.49,1.65-12.6,4.94c-3.11,3.3-4.67,8.02-4.67,14.17v29.65
		h-10.43V76.32h9.99v8.58c2.1-2.97,4.85-5.23,8.25-6.79c3.4-1.56,7.28-2.34,11.62-2.34c4.49,0,8.47,0.91,11.95,2.72
		c3.48,1.81,6.15,4.45,8.04,7.93c2.17-3.33,5.19-5.94,9.07-7.82c3.87-1.88,8.24-2.82,13.09-2.82
		C180.63,75.78,186.37,77.88,190.61,82.07z"/>
	<path class="st0" d="M255.73,118.46l5.65,6.73c-2.54,3.04-5.74,5.36-9.61,6.95c-3.87,1.59-8.2,2.39-12.98,2.39
		c-6.08,0-11.48-1.25-16.18-3.75c-4.71-2.5-8.35-5.99-10.91-10.48c-2.57-4.49-3.86-9.56-3.86-15.2c0-5.57,1.25-10.61,3.75-15.1
		c2.5-4.49,5.94-7.98,10.32-10.48c4.38-2.5,9.32-3.75,14.82-3.75c5.21,0,9.95,1.18,14.23,3.53c4.27,2.35,7.67,5.67,10.21,9.94
		c2.53,4.27,3.84,9.2,3.91,14.77l-45.72,8.91c1.45,3.98,3.89,7.06,7.33,9.23c3.44,2.17,7.58,3.26,12.43,3.26
		C245.99,125.41,251.53,123.09,255.73,118.46z M227,87.07c-2.86,1.67-5.09,4-6.68,7.01c-1.59,3.01-2.39,6.5-2.39,10.48v1.09
		l36.82-6.95c-0.94-4.2-3.04-7.6-6.3-10.21c-3.26-2.61-7.17-3.91-11.73-3.91C233.1,84.57,229.86,85.41,227,87.07z"/>
	<path class="st0" d="M320.1,118.46l5.65,6.73c-2.54,3.04-5.74,5.36-9.61,6.95c-3.87,1.59-8.2,2.39-12.98,2.39
		c-6.08,0-11.48-1.25-16.18-3.75c-4.71-2.5-8.35-5.99-10.91-10.48c-2.57-4.49-3.86-9.56-3.86-15.2c0-5.57,1.25-10.61,3.75-15.1
		c2.5-4.49,5.94-7.98,10.32-10.48c4.38-2.5,9.32-3.75,14.82-3.75c5.21,0,9.95,1.18,14.23,3.53c4.27,2.35,7.67,5.67,10.21,9.94
		c2.53,4.27,3.84,9.2,3.91,14.77l-45.72,8.91c1.45,3.98,3.89,7.06,7.33,9.23c3.44,2.17,7.58,3.26,12.43,3.26
		C310.36,125.41,315.9,123.09,320.1,118.46z M291.37,87.07c-2.86,1.67-5.09,4-6.68,7.01c-1.59,3.01-2.39,6.5-2.39,10.48v1.09
		l36.82-6.95c-0.94-4.2-3.04-7.6-6.3-10.21c-3.26-2.61-7.17-3.91-11.73-3.91C297.47,84.57,294.23,85.41,291.37,87.07z"/>
</g>
<path d="M67.99,9.05h-39.6v-4.3c0-0.24-0.19-0.43-0.43-0.43h-4.9c0,0,0,0,0,0H4.84c-0.24,0-0.43,0.19-0.43,0.43v4.73v5.45v37.82
	c0,0.24,0.19,0.43,0.43,0.43h4.9c0,0,0,0,0,0h58.24c0.24,0,0.43-0.19,0.43-0.43V9.47C68.42,9.24,68.23,9.05,67.99,9.05z M5.42,14.92
	V9.47V5.32h3.9v4.15v5.45v37.25h-3.9V14.92z"/>
<path d="M170.61,25.72l-21.2,0.1V9.47c0-0.24-0.19-0.43-0.43-0.43h-39.6v-4.3c0-0.24-0.19-0.43-0.43-0.43H90.74
	c-0.24,0-0.43,0.19-0.43,0.43v4.73v5.45v37.82c0,0.24,0.19,0.43,0.43,0.43h0.62c0,0,0,0,0,0h57.87c0.11,0,0.22-0.04,0.3-0.12
	l21.38-26.6C171.18,26.18,170.99,25.72,170.61,25.72z M91.31,9.47V5.32h17.07v3.73v1h1h39.03v15.77l-18.96,0.09
	c-0.37,0-0.57-0.44-0.32-0.71l1.62-1.79c0.25-0.27,0.05-0.71-0.32-0.71H114.5c-0.11,0-0.22,0.04-0.3,0.12L91.31,52.13v-37.2V9.47z"
	/>
<g>
	<path d="M63.76,152.78H79.3c4.08,0,7.7,0.84,10.86,2.53s5.62,4.01,7.38,6.99c1.76,2.97,2.64,6.35,2.64,10.13s-0.88,7.15-2.64,10.13
		c-1.76,2.97-4.22,5.3-7.38,6.99s-6.78,2.53-10.86,2.53H63.76V152.78z M79.08,189.48c3.63,0,6.83-0.72,9.6-2.16
		c2.77-1.44,4.9-3.45,6.4-6.03s2.25-5.54,2.25-8.87s-0.75-6.29-2.25-8.87c-1.5-2.58-3.63-4.59-6.4-6.03
		c-2.77-1.44-5.97-2.16-9.6-2.16H66.62v34.12H79.08z"/>
	<path d="M138.04,189.48v2.58h-27.1v-39.28h26.26v2.58h-23.4v15.49h20.93v2.53H113.8v16.11H138.04z"/>
	<path d="M150.97,190.85c-2.6-0.99-4.63-2.27-6.09-3.84l1.29-2.13c1.38,1.46,3.25,2.65,5.58,3.56c2.34,0.92,4.8,1.37,7.38,1.37
		c3.74,0,6.57-0.71,8.47-2.13c1.91-1.42,2.86-3.27,2.86-5.56c0-1.76-0.5-3.16-1.51-4.21c-1.01-1.05-2.26-1.85-3.76-2.41
		c-1.5-0.56-3.52-1.14-6.06-1.74c-2.88-0.71-5.19-1.4-6.93-2.08c-1.74-0.67-3.22-1.71-4.43-3.12c-1.22-1.4-1.82-3.28-1.82-5.64
		c0-1.91,0.51-3.66,1.52-5.25c1.01-1.59,2.55-2.85,4.63-3.79s4.67-1.4,7.77-1.4c2.17,0,4.3,0.32,6.4,0.95
		c2.09,0.64,3.91,1.5,5.44,2.58l-1.07,2.3c-1.57-1.08-3.3-1.91-5.19-2.47c-1.89-0.56-3.75-0.84-5.58-0.84
		c-3.63,0-6.38,0.73-8.25,2.19c-1.87,1.46-2.81,3.35-2.81,5.67c0,1.76,0.5,3.16,1.52,4.21c1.01,1.05,2.26,1.85,3.76,2.41
		c1.5,0.56,3.54,1.16,6.12,1.79c2.88,0.71,5.18,1.4,6.9,2.08c1.72,0.67,3.19,1.69,4.41,3.06c1.22,1.37,1.82,3.21,1.82,5.53
		c0,1.91-0.51,3.65-1.54,5.22c-1.03,1.57-2.61,2.83-4.74,3.76c-2.13,0.94-4.75,1.4-7.86,1.4
		C156.31,192.34,153.57,191.84,150.97,190.85z"/>
	<path d="M183.43,152.78h2.86v39.28h-2.86V152.78z"/>
	<path d="M327.11,149.99h2.86v50.83h-2.86V149.99z"/>
	<path d="M228.99,172.59h2.75v19.47h-2.58v-3.93c-1.61,1.38-3.47,2.43-5.58,3.14c-2.11,0.71-4.35,1.07-6.71,1.07
		c-3.44,0-6.67-0.79-9.68-2.36c-3.01-1.57-5.43-3.85-7.27-6.85c-1.83-2.99-2.75-6.55-2.75-10.66c0-3.78,0.89-7.19,2.67-10.24
		c1.78-3.05,4.23-5.43,7.35-7.16c3.12-1.72,6.65-2.58,10.58-2.58c2.88,0,5.53,0.46,7.94,1.38c2.41,0.92,4.48,2.25,6.2,4.01
		l-1.8,1.91c-1.65-1.65-3.49-2.83-5.53-3.56c-2.04-0.73-4.29-1.09-6.76-1.09c-3.37,0-6.41,0.76-9.12,2.27
		c-2.71,1.52-4.83,3.59-6.37,6.23c-1.53,2.64-2.3,5.58-2.3,8.84c0,3.52,0.79,6.58,2.38,9.2c1.59,2.62,3.68,4.62,6.29,6
		c2.6,1.38,5.38,2.08,8.33,2.08c2.21,0,4.35-0.39,6.42-1.18c2.08-0.79,3.92-1.96,5.53-3.54V172.59z"/>
	<path d="M272.01,156.65c2.66,2.77,3.98,6.73,3.98,11.9v23.51h-2.86v-23.4c0-4.41-1.1-7.77-3.31-10.07
		c-2.21-2.3-5.33-3.45-9.37-3.45c-4.15,0-7.37,1.22-9.65,3.65c-2.28,2.43-3.42,6.06-3.42,10.89v22.39h-2.86v-39.28h2.81v7.58
		c1.2-2.62,2.96-4.58,5.27-5.89c2.32-1.31,5.11-1.96,8.36-1.96C265.67,152.5,269.35,153.88,272.01,156.65z"/>
	<path d="M291.91,190.85c-2.6-0.99-4.63-2.27-6.09-3.84l1.29-2.13c1.38,1.46,3.25,2.65,5.58,3.56c2.34,0.92,4.8,1.37,7.38,1.37
		c3.74,0,6.57-0.71,8.47-2.13c1.91-1.42,2.86-3.27,2.86-5.56c0-1.76-0.5-3.16-1.51-4.21c-1.01-1.05-2.26-1.85-3.76-2.41
		c-1.5-0.56-3.52-1.14-6.06-1.74c-2.88-0.71-5.19-1.4-6.93-2.08c-1.74-0.67-3.22-1.71-4.43-3.12c-1.22-1.4-1.82-3.28-1.82-5.64
		c0-1.91,0.51-3.66,1.52-5.25c1.01-1.59,2.55-2.85,4.63-3.79s4.67-1.4,7.77-1.4c2.17,0,4.3,0.32,6.4,0.95
		c2.09,0.64,3.91,1.5,5.44,2.58l-1.07,2.3c-1.57-1.08-3.3-1.91-5.19-2.47c-1.89-0.56-3.75-0.84-5.58-0.84
		c-3.63,0-6.38,0.73-8.25,2.19c-1.87,1.46-2.81,3.35-2.81,5.67c0,1.76,0.5,3.16,1.52,4.21c1.01,1.05,2.26,1.85,3.76,2.41
		c1.5,0.56,3.54,1.16,6.12,1.79c2.88,0.71,5.18,1.4,6.9,2.08c1.72,0.67,3.19,1.69,4.41,3.06c1.22,1.37,1.82,3.21,1.82,5.53
		c0,1.91-0.51,3.65-1.54,5.22c-1.03,1.57-2.61,2.83-4.74,3.76c-2.13,0.94-4.75,1.4-7.86,1.4
		C297.26,192.34,294.52,191.84,291.91,190.85z"/>
</g>
<path d="M256.77,50.73h-18.94V9.47c0-0.24-0.19-0.43-0.43-0.43h-39.6v-4.3c0-0.24-0.19-0.43-0.43-0.43h-18.22
	c-0.24,0-0.43,0.19-0.43,0.43v4.73v5.45v37.82c0,0,0,0,0,0v0.13c0,0.16,0.13,0.3,0.3,0.3h77.74c0.16,0,0.3-0.13,0.3-0.3v-1.85
	C257.07,50.86,256.93,50.73,256.77,50.73z M179.73,9.47V5.32h17.07v3.73v1h1h39.03v40.68h-57.1v-35.8V9.47z"/>
<path class="st0" d="M193.89,25.52c0-5.9,4.33-10.79,9.99-11.66c-0.23-0.78-0.35-1.61-0.35-2.46c0-4.91,3.98-8.89,8.89-8.89
	c3.38,0,6.33,1.89,7.83,4.67C221.68,3,225.63,0,230.29,0c5.86,0,10.61,4.75,10.61,10.61c0,0.01,0,0.01,0,0.02
	c7.06,0.35,12.68,6.19,12.68,13.34c0,7.38-5.98,13.36-13.36,13.36c-2.99,0-8.17,0-13.71,0c-0.87,3.46-4,6.03-7.73,6.03
	c-1.71,0-3.29-0.54-4.59-1.46c-0.5,2-2.31,3.48-4.47,3.48c-2.55,0-4.61-2.06-4.61-4.61c0-1.37,0.6-2.6,1.56-3.45
	c-0.35,0-0.69,0-0.99,0C199.17,37.32,193.89,32.03,193.89,25.52z"/>
</svg>
