<svg id="Layer_1" data-name="Layer 1" xmlns="http://www.w3.org/2000/svg" viewBox="0 0 329.97 199.38"><defs><style>.cls-1{fill:#fff;}.cls-2{fill:#f16667;}</style></defs><path class="cls-1" d="M69.43,9.05H29.82V4.74a.42.42,0,0,0-.42-.42H3.28a.42.42,0,0,0-.43.42v48a.42.42,0,0,0,.43.42H69.43a.42.42,0,0,0,.42-.42V9.47A.42.42,0,0,0,69.43,9.05ZM5.85,14.92V7.32h4.91V50.17H5.85Z"/><path class="cls-1" d="M172.05,25.72l-21.21.1V9.47a.42.42,0,0,0-.42-.42H110.81V4.74a.42.42,0,0,0-.42-.42H92.17a.42.42,0,0,0-.42.42v48a.42.42,0,0,0,.42.42h58.5a.42.42,0,0,0,.3-.12l21.38-26.6A.43.43,0,0,0,172.05,25.72ZM94.75,9.47V7.32h13.06v4.73h40V25.83l-17,.08a.43.43,0,0,1-.32-.72l1.63-1.79a.43.43,0,0,0-.32-.71H115.94a.42.42,0,0,0-.3.12L94.75,49.56V9.47Z"/><path class="cls-1" d="M258.21,49.51H239.26v-40a.42.42,0,0,0-.42-.42H199.23V4.74a.42.42,0,0,0-.42-.42H180.59a.42.42,0,0,0-.42.42v48h0v.13a.29.29,0,0,0,.29.29h77.75a.29.29,0,0,0,.29-.29V49.81A.29.29,0,0,0,258.21,49.51Zm-75-40V7.32h13.06v4.73h40V49.51H183.17v-40Z"/><path class="cls-2" d="M195.32,25.52a11.8,11.8,0,0,1,10-11.66,9.15,9.15,0,0,1-.35-2.47,8.9,8.9,0,0,1,16.73-4.21,10.6,10.6,0,0,1,20.64,3.43h0a13.36,13.36,0,0,1-.68,26.7H228a8,8,0,0,1-12.32,4.57,4.61,4.61,0,1,1-7.52-4.57h-1A11.8,11.8,0,0,1,195.32,25.52Z"/><path class="cls-2" d="M59.62,74.88v57.56h-10v-9.12a22.65,22.65,0,0,1-8.79,7.28,27.35,27.35,0,0,1-11.73,2.49,30.25,30.25,0,0,1-15-3.69A26.38,26.38,0,0,1,3.75,119,30.83,30.83,0,0,1,0,103.66,30.55,30.55,0,0,1,3.75,88.35,26.45,26.45,0,0,1,14.12,78a30.25,30.25,0,0,1,15-3.69,27.7,27.7,0,0,1,11.4,2.33,22.25,22.25,0,0,1,8.69,6.9V74.88ZM39.86,121.42a17.9,17.9,0,0,0,7-7.17,23.68,23.68,0,0,0,0-21.18,17.62,17.62,0,0,0-7-7.11A19.94,19.94,0,0,0,30,83.46,19.79,19.79,0,0,0,20,86a18,18,0,0,0-6.95,7.11,23.18,23.18,0,0,0,0,21.18,18.3,18.3,0,0,0,7,7.17A19.42,19.42,0,0,0,30,124,19.56,19.56,0,0,0,39.86,121.42Z"/><path class="cls-2" d="M75.24,74.88H85.67v57.56H75.24Z"/><path class="cls-2" d="M190.61,80.64Q197,86.94,197,99.32v33.12H186.54V100.51q0-8.36-3.86-12.59t-11-4.24q-7.93,0-12.6,4.94t-4.67,14.17v29.65H144V100.51q0-8.36-3.85-12.59t-11-4.24q-7.92,0-12.59,4.94t-4.67,14.17v29.65H101.39V74.88h10v8.58a20.2,20.2,0,0,1,8.26-6.79,27.71,27.71,0,0,1,11.62-2.33,25.56,25.56,0,0,1,11.94,2.71,18.93,18.93,0,0,1,8,7.93,22.06,22.06,0,0,1,9.07-7.82,29.56,29.56,0,0,1,13.09-2.82Q184.25,74.34,190.61,80.64Z"/><path class="cls-2" d="M255.73,117l5.64,6.73a24.23,24.23,0,0,1-9.61,7,36.74,36.74,0,0,1-29.16-1.36,26.75,26.75,0,0,1-10.91-10.48,30.07,30.07,0,0,1-3.86-15.21,30.49,30.49,0,0,1,3.75-15.09A26.8,26.8,0,0,1,221.9,78.09a29.36,29.36,0,0,1,14.82-3.75A29,29,0,0,1,251,77.87a26.69,26.69,0,0,1,10.21,9.94,29.26,29.26,0,0,1,3.91,14.77l-45.72,8.9a17.67,17.67,0,0,0,7.33,9.23A22.71,22.71,0,0,0,239.11,124Q249.43,124,255.73,117ZM227,85.63a17.36,17.36,0,0,0-6.68,7,22.08,22.08,0,0,0-2.39,10.48v1.09l36.82-6.95a17.57,17.57,0,0,0-6.3-10.21,18.18,18.18,0,0,0-11.73-3.91A19,19,0,0,0,227,85.63Z"/><path class="cls-2" d="M320.1,117l5.64,6.73a24.23,24.23,0,0,1-9.61,7A36.74,36.74,0,0,1,287,129.35a26.75,26.75,0,0,1-10.91-10.48,30.07,30.07,0,0,1-3.86-15.21A30.49,30.49,0,0,1,276,88.57a26.8,26.8,0,0,1,10.32-10.48,29.36,29.36,0,0,1,14.82-3.75,29,29,0,0,1,14.23,3.53,26.69,26.69,0,0,1,10.21,9.94,29.26,29.26,0,0,1,3.91,14.77l-45.73,8.9a17.73,17.73,0,0,0,7.34,9.23A22.71,22.71,0,0,0,303.48,124Q313.8,124,320.1,117ZM291.37,85.63a17.36,17.36,0,0,0-6.68,7,22.08,22.08,0,0,0-2.39,10.48v1.09l36.82-6.95a17.57,17.57,0,0,0-6.3-10.21,18.18,18.18,0,0,0-11.73-3.91A19,19,0,0,0,291.37,85.63Z"/><path class="cls-1" d="M63.76,151.34H79.3a22.67,22.67,0,0,1,10.86,2.53,18.46,18.46,0,0,1,7.38,7,20.76,20.76,0,0,1,0,20.26,18.56,18.56,0,0,1-7.38,7,22.78,22.78,0,0,1-10.86,2.52H63.76ZM79.08,188a20.48,20.48,0,0,0,9.59-2.16,15.47,15.47,0,0,0,6.4-6,18.68,18.68,0,0,0,0-17.74,15.47,15.47,0,0,0-6.4-6,20.48,20.48,0,0,0-9.59-2.16H66.62V188Z"/><path class="cls-1" d="M138,188v2.58h-27.1V151.34H137.2v2.58H113.8v15.49h20.93v2.53H113.8V188Z"/><path class="cls-1" d="M151,189.42a16,16,0,0,1-6.09-3.85l1.29-2.13a15,15,0,0,0,5.58,3.56,20,20,0,0,0,7.38,1.38q5.61,0,8.48-2.13a6.66,6.66,0,0,0,2.86-5.56,5.81,5.81,0,0,0-1.52-4.21,9.94,9.94,0,0,0-3.76-2.41,51.41,51.41,0,0,0-6.06-1.74,59.56,59.56,0,0,1-6.93-2.08,11,11,0,0,1-4.43-3.11,8.32,8.32,0,0,1-1.83-5.64,9.6,9.6,0,0,1,1.52-5.25,10.3,10.3,0,0,1,4.63-3.79,19,19,0,0,1,7.77-1.4,22.15,22.15,0,0,1,6.4.95,19,19,0,0,1,5.44,2.58l-1.06,2.31a18.17,18.17,0,0,0-5.2-2.47,19.54,19.54,0,0,0-5.58-.85q-5.45,0-8.25,2.19a6.86,6.86,0,0,0-2.8,5.67,5.81,5.81,0,0,0,1.51,4.21,9.94,9.94,0,0,0,3.76,2.41,58.62,58.62,0,0,0,6.12,1.8,55.85,55.85,0,0,1,6.9,2.08,11.41,11.41,0,0,1,4.41,3.05,8,8,0,0,1,1.82,5.53,9.39,9.39,0,0,1-1.54,5.22A10.46,10.46,0,0,1,167,189.5a19.44,19.44,0,0,1-7.85,1.4A22.9,22.9,0,0,1,151,189.42Z"/><path class="cls-1" d="M183.43,151.34h2.86v39.28h-2.86Z"/><path class="cls-1" d="M327.11,148.55H330v50.83h-2.86Z"/><path class="cls-1" d="M229,171.15h2.75v19.47h-2.58v-3.93a16.49,16.49,0,0,1-5.58,3.15,21,21,0,0,1-6.71,1.06,20.63,20.63,0,0,1-9.68-2.35,18.53,18.53,0,0,1-7.27-6.85,21.5,21.5,0,0,1-.08-20.9,19,19,0,0,1,7.35-7.16,21.56,21.56,0,0,1,10.58-2.58,22.32,22.32,0,0,1,7.94,1.37,17,17,0,0,1,6.2,4l-1.8,1.9a14.83,14.83,0,0,0-5.52-3.56,20,20,0,0,0-6.77-1.09,18.41,18.41,0,0,0-9.11,2.27,16.51,16.51,0,0,0-6.37,6.23A17.2,17.2,0,0,0,200,171a17.39,17.39,0,0,0,2.38,9.2,16.12,16.12,0,0,0,6.29,6,17.49,17.49,0,0,0,8.33,2.07,17.85,17.85,0,0,0,6.42-1.18,15.79,15.79,0,0,0,5.53-3.53Z"/><path class="cls-1" d="M272,155.21q4,4.15,4,11.9v23.51h-2.87v-23.4q0-6.61-3.31-10.07t-9.37-3.45q-6.22,0-9.65,3.64t-3.42,10.89v22.39h-2.87V151.34h2.81v7.58a12.53,12.53,0,0,1,5.27-5.9,16.77,16.77,0,0,1,8.37-2Q268,151.06,272,155.21Z"/><path class="cls-1" d="M291.91,189.42a16,16,0,0,1-6.08-3.85l1.29-2.13A15,15,0,0,0,292.7,187a20,20,0,0,0,7.38,1.38c3.74,0,6.57-.71,8.47-2.13a6.64,6.64,0,0,0,2.87-5.56,5.81,5.81,0,0,0-1.52-4.21,9.94,9.94,0,0,0-3.76-2.41,52.58,52.58,0,0,0-6.06-1.74,59.56,59.56,0,0,1-6.93-2.08,11,11,0,0,1-4.43-3.11,8.32,8.32,0,0,1-1.83-5.64,9.6,9.6,0,0,1,1.52-5.25,10.3,10.3,0,0,1,4.63-3.79,19,19,0,0,1,7.77-1.4,22.15,22.15,0,0,1,6.4.95,19,19,0,0,1,5.44,2.58l-1.07,2.31a18,18,0,0,0-5.19-2.47,19.6,19.6,0,0,0-5.58-.85q-5.44,0-8.25,2.19a6.87,6.87,0,0,0-2.81,5.67,5.81,5.81,0,0,0,1.52,4.21,9.94,9.94,0,0,0,3.76,2.41,57.17,57.17,0,0,0,6.12,1.8,55.85,55.85,0,0,1,6.9,2.08,11.3,11.3,0,0,1,4.4,3.05,8,8,0,0,1,1.83,5.53,9.32,9.32,0,0,1-1.55,5.22A10.49,10.49,0,0,1,308,189.5a19.44,19.44,0,0,1-7.85,1.4A23,23,0,0,1,291.91,189.42Z"/></svg>